<?xml version="1.0" encoding="UTF-8" standalone="no"?>
<svg
   viewBox="0 0 389.90372 207.22016"
   version="1.1"
   id="svg102"
   sodipodi:docname="residual-1.svg"
   width="389.90372"
   height="207.22015"
   inkscape:version="1.1.2 (0a00cf5339, 2022-02-04)"
   xmlns:inkscape="http://www.inkscape.org/namespaces/inkscape"
   xmlns:sodipodi="http://sodipodi.sourceforge.net/DTD/sodipodi-0.dtd"
   xmlns:xlink="http://www.w3.org/1999/xlink"
   xmlns="http://www.w3.org/2000/svg"
   xmlns:svg="http://www.w3.org/2000/svg">
  <sodipodi:namedview
     id="namedview104"
     pagecolor="#ffffff"
     bordercolor="#666666"
     borderopacity="1.0"
     inkscape:pageshadow="2"
     inkscape:pageopacity="0.0"
     inkscape:pagecheckerboard="0"
     showgrid="false"
     inkscape:zoom="3.6599847"
     inkscape:cx="221.03917"
     inkscape:cy="30.601221"
     inkscape:window-width="1536"
     inkscape:window-height="827"
     inkscape:window-x="2048"
     inkscape:window-y="166"
     inkscape:window-maximized="1"
     inkscape:current-layer="svg102" />
  <g
     transform="translate(108.90371,-84.626)"
     id="g8">
    <path
       d="M 15,5 3,11 15,17 27,11 Z M 3,15 15,21 27,15 M 3,11 15,17 27,11"
       fill="none"
       stroke="url(#gradTitle)"
       stroke-width="2.5"
       stroke-linecap="round"
       stroke-linejoin="round"
       id="path4"
       style="stroke:url(#linearGradient1017)" />
    <text
       x="45"
       y="18"
       font-family="'Segoe UI', Roboto, Helvetica, Arial, sans-serif"
       font-weight="800"
       font-size="26px"
       fill="#0f172a"
       id="text6">The Concept: From Partial Modeling to Full Richness</text>
  </g>
  <defs
     id="defs26">
    <linearGradient
       id="gradTitle"
       x1="0"
       y1="0"
       x2="1"
       y2="0">
      <stop
         offset="0%"
         stop-color="#2563eb"
         id="stop10" />
      <stop
         offset="100%"
         stop-color="#06b6d4"
         id="stop12" />
    </linearGradient>
    <linearGradient
       id="gradTeal"
       x1="0"
       y1="0"
       x2="1"
       y2="0">
      <stop
         offset="0%"
         stop-color="#0d9488"
         id="stop15" />
      <stop
         offset="100%"
         stop-color="#14b8a6"
         id="stop17" />
    </linearGradient>
    <linearGradient
       id="gradBlue"
       x1="0"
       y1="0"
       x2="1"
       y2="0">
      <stop
         offset="0%"
         stop-color="#0ea5e9"
         id="stop20" />
      <stop
         offset="100%"
         stop-color="#3b82f6"
         id="stop22" />
    </linearGradient>
    <filter
       id="shadowSmall"
       x="-0.024259597"
       y="-0.011538462"
       width="1.0485192"
       height="1.0230769">
      <feDropShadow
         dx="0"
         dy="2"
         stdDeviation="3"
         flood-color="#000000"
         flood-opacity="0.1" />
    </filter>
    <linearGradient
       inkscape:collect="always"
       xlink:href="#gradTitle"
       id="linearGradient1015"
       x1="1.4621793"
       y1="4.4881811"
       x2="23.60375"
       y2="4.4881811"
       gradientTransform="scale(1.1968436,0.83553103)"
       gradientUnits="userSpaceOnUse" />
    <linearGradient
       inkscape:collect="always"
       xlink:href="#gradTitle"
       id="linearGradient1017"
       x1="1.4621793"
       y1="4.4881811"
       x2="23.60375"
       y2="4.4881811"
       gradientTransform="scale(1.1968436,0.83553103)"
       gradientUnits="userSpaceOnUse" />
    <linearGradient
       inkscape:collect="always"
       xlink:href="#gradTeal"
       id="linearGradient1019"
       x1="16.805845"
       y1="107.94342"
       x2="74.551582"
       y2="107.94342"
       gradientTransform="matrix(4.383311,0,0,0.22813805,388.07862,-3.9399886)"
       gradientUnits="userSpaceOnUse" />
    <linearGradient
       inkscape:collect="always"
       xlink:href="#gradTeal"
       id="linearGradient1021"
       x1="83.224007"
       y1="156.756"
       x2="96.748009"
       y2="156.756"
       gradientUnits="userSpaceOnUse"
       gradientTransform="translate(458.90371,-24.626001)" />
    <linearGradient
       inkscape:collect="always"
       xlink:href="#gradTeal"
       id="linearGradient1023"
       x1="138.20895"
       y1="211.382"
       x2="169.10583"
       y2="211.382"
       gradientTransform="matrix(1.37473,0,0,0.72741555,458.90371,-24.626001)"
       gradientUnits="userSpaceOnUse" />
    <linearGradient
       inkscape:collect="always"
       xlink:href="#gradBlue"
       id="linearGradient1025"
       x1="250.18633"
       y1="72.045532"
       x2="473.97107"
       y2="72.045532"
       gradientTransform="matrix(0.99425899,0,0,1.0057742,458.90371,-24.626001)"
       gradientUnits="userSpaceOnUse" />
    <linearGradient
       inkscape:collect="always"
       xlink:href="#gradBlue"
       id="linearGradient1027"
       x1="-39.987499"
       y1="21.531731"
       x2="39.987499"
       y2="21.531731"
       gradientTransform="scale(2.0506409,0.48765242)"
       gradientUnits="userSpaceOnUse" />
    <linearGradient
       inkscape:collect="always"
       xlink:href="#gradBlue"
       id="linearGradient1029"
       x1="-43.392921"
       y1="14.501964"
       x2="43.618858"
       y2="14.501964"
       gradientTransform="scale(1.9335952,0.51717134)"
       gradientUnits="userSpaceOnUse" />
  </defs>
  <text
     x="166.90372"
     y="16.374001"
     font-family="'Segoe UI', Roboto, Helvetica, Arial, sans-serif"
     font-weight="700"
     font-size="14px"
     fill="#64748b"
     text-anchor="middle"
     letter-spacing="1.2"
     id="text30">CLASSICAL PARADIGM (E.G., ANCOGEN)</text>
  <rect
     x="8.9037142"
     y="45.374001"
     width="130"
     height="160"
     rx="16"
     fill="#f8fafc"
     stroke="#cbd5e1"
     stroke-width="1"
     filter="url(#shadowSmall)"
     id="rect32" />
  <g
     transform="translate(28.903714,80.373999)"
     fill="#334155"
     font-family="'Segoe UI', Roboto, Helvetica, Arial, sans-serif"
     font-size="14px"
     font-weight="600"
     id="g48">
    <path
       d="m 12,2 a 4,4 0 1 0 0,8 4,4 0 0 0 0,-8 z M 2,20 a 10,10 0 0 1 20,0"
       fill="none"
       stroke="#2563eb"
       stroke-width="1.8"
       transform="scale(0.7)"
       id="path34" />
    <text
       x="28"
       y="10"
       id="text36">Identity</text>
    <path
       d="M 4,7 H 20 M 12,7 V 19"
       fill="none"
       stroke="#2563eb"
       stroke-width="1.8"
       transform="matrix(0.7,0,0,0.7,0,40)"
       id="path38" />
    <text
       x="28"
       y="50"
       id="text40">Content</text>
    <path
       d="M 9,18 V 5 L 21,3 v 13"
       fill="none"
       stroke="#2563eb"
       stroke-width="1.8"
       transform="matrix(0.7,0,0,0.7,0,80)"
       id="path42" />
    <circle
       cx="6"
       cy="18"
       r="3"
       fill="none"
       stroke="#2563eb"
       stroke-width="1.8"
       transform="matrix(0.7,0,0,0.7,0,80)"
       id="circle44" />
    <text
       x="28"
       y="90"
       id="text46">Pitch</text>
  </g>
  <path
     d="m 158.90371,125.374 h 40 m -10,-10 10,10 -10,10"
     fill="none"
     stroke="#94a3b8"
     stroke-width="2.5"
     id="path50" />
  <rect
     x="218.90372"
     y="45.374001"
     width="170"
     height="160"
     rx="16"
     fill="none"
     stroke="#94a3b8"
     stroke-width="2"
     stroke-dasharray="6, 6"
     id="rect52" />
  <g
     transform="translate(303.90371,85.373999)"
     text-anchor="middle"
     id="g62">
    <path
       d="m -60,30 q 20,0 40,0 20,0 40,0 20,0 40,0"
       fill="none"
       stroke="#64748b"
       stroke-width="3"
       stroke-linecap="round"
       id="path54" />
    <path
       d="m -60,30 q 20,0 40,0 20,0 40,0 20,0 40,0"
       fill="none"
       stroke="#64748b"
       stroke-width="8"
       stroke-opacity="0.2"
       id="path56" />
    <text
       y="80"
       font-family="'Segoe UI', Roboto, Helvetica, Arial, sans-serif"
       font-size="14px"
       font-weight="700"
       fill="#475569"
       id="text58">&quot;Flat&quot; Speech</text>
    <text
       y="105"
       font-family="'Segoe UI', Roboto, Helvetica, Arial, sans-serif"
       font-size="12px"
       fill="#64748b"
       id="text60">(Lacks Expressivity)</text>
  </g>
  <text
     x="621.46228"
     y="10.374"
     font-family="'Segoe UI', Roboto, Helvetica, Arial, sans-serif"
     font-weight="700"
     font-size="14px"
     fill="#64748b"
     text-anchor="middle"
     letter-spacing="1.2"
     id="text5149">RT-MAE PARADIGM (PROPOSED)</text>
  <text
     x="588.07861"
     y="31.060013"
     font-family="'Segoe UI', Roboto, Helvetica, Arial, sans-serif"
     font-weight="700"
     font-size="14px"
     fill="url(#gradTeal)"
     text-anchor="middle"
     letter-spacing="1.2"
     id="text66"
     style="fill:url(#linearGradient1019)" />
  <rect
     x="468.90372"
     y="45.374001"
     width="51.526001"
     height="65"
     rx="14"
     fill="#f0fdfa"
     stroke="#0d9488"
     stroke-width="1.5"
     filter="url(#shadowSmall)"
     id="rect68" />
  <text
     x="548.90369"
     y="83.374001"
     font-family="'Segoe UI', Roboto, Helvetica, Arial, sans-serif"
     font-weight="700"
     font-size="13px"
     fill="#0f172a"
     text-anchor="middle"
     id="text70">ATTRIBUTES (A)</text>
  <text
     x="548.90369"
     y="145.37399"
     font-family="'Segoe UI', Roboto, Helvetica, Arial, sans-serif"
     font-size="28px"
     fill="url(#gradTeal)"
     text-anchor="middle"
     font-weight="bold"
     id="text72"
     style="fill:url(#linearGradient1021)">+</text>
  <rect
     x="468.90372"
     y="170.37399"
     width="51.526001"
     height="65"
     rx="14"
     fill="#ecfdf5"
     stroke="#10b981"
     stroke-width="1.5"
     filter="url(#shadowSmall)"
     id="rect74" />
  <g
     transform="translate(493.90371,193.374)"
     id="g80">
    <path
       d="m 12,3 1.9,5.8 a 2,2 0 0 0 1.3,1.3 L 21,12 15.2,13.9 a 2,2 0 0 0 -1.3,1.3 L 12,21 10.1,15.2 A 2,2 0 0 0 8.8,13.9 L 3,12 8.8,10.1 a 2,2 0 0 0 1.3,-1.3 z"
       fill="#10b981"
       transform="scale(0.7)"
       id="path76" />
    <text
       x="25"
       y="14"
       font-family="'Segoe UI', Roboto, Helvetica, Arial, sans-serif"
       font-weight="700"
       font-size="13px"
       fill="#065f46"
       id="text78">RESIDUALS (R)</text>
  </g>
  <path
     d="m 648.90371,140.374 h 40 m -10,-10 10,10 -10,10"
     fill="none"
     stroke="url(#gradTeal)"
     stroke-width="3.5"
     id="path82"
     style="stroke:url(#linearGradient1023)" />
  <rect
     x="708.90369"
     y="50.374001"
     width="51.526001"
     height="220"
     rx="22"
     fill="#f0f9ff"
     stroke="url(#gradBlue)"
     stroke-width="2.5"
     filter="url(#shadowSmall)"
     id="rect84"
     style="stroke:url(#linearGradient1025)" />
  <g
     transform="translate(818.90371,115.374)"
     text-anchor="middle"
     id="g98">
    <path
       d="m -80,30 q 20,-25 40,0 20,25 40,0 20,-35 40,0 20,35 40,0"
       fill="none"
       stroke="url(#gradBlue)"
       stroke-width="4"
       stroke-linecap="round"
       id="path86"
       style="stroke:url(#linearGradient1027)" />
    <path
       d="m -80,30 q 20,-25 40,0 20,25 40,0 20,-35 40,0 20,35 40,0"
       fill="none"
       stroke="url(#gradBlue)"
       stroke-width="10"
       stroke-opacity="0.25"
       id="path88"
       style="stroke:url(#linearGradient1029)" />
    <g
       transform="translate(60,-10)"
       id="g92">
      <path
         d="m 10,0 2,4 M 10,0 6,2 m 6,0 -2,4"
         stroke="#eab308"
         stroke-width="2"
         id="path90" />
    </g>
    <text
       y="90"
       font-family="'Segoe UI', Roboto, Helvetica, Arial, sans-serif"
       font-weight="800"
       font-size="16px"
       fill="#1e293b"
       id="text94">Natural Speech</text>
    <text
       y="115"
       font-family="'Segoe UI', Roboto, Helvetica, Arial, sans-serif"
       font-size="13px"
       font-weight="700"
       fill="#0284c7"
       id="text96">(Emotion, Timbre, Detail)</text>
  </g>
  <text
     x="77.874664"
     y="60.135216"
     font-family="'Segoe UI', Roboto, Helvetica, Arial, sans-serif"
     font-weight="700"
     font-size="13px"
     fill="#0f172a"
     text-anchor="middle"
     id="text3627">ATTRIBUTES (A)</text>
  <rect
     width="1000"
     height="450"
     fill="#ffffff"
     rx="10"
     id="rect921"
     x="-91.096283"
     y="633.64856" />
  <g
     transform="translate(108.90371,673.64856)"
     id="g927">
    <path
       d="M 15,5 3,11 15,17 27,11 Z M 3,15 15,21 27,15 M 3,11 15,17 27,11"
       fill="none"
       stroke="url(#gradTitle)"
       stroke-width="2.5"
       stroke-linecap="round"
       stroke-linejoin="round"
       id="path923"
       style="stroke:url(#linearGradient1015)" />
    <text
       x="45"
       y="18"
       font-family="'Segoe UI', Roboto, Helvetica, Arial, sans-serif"
       font-weight="800"
       font-size="26px"
       fill="#0f172a"
       id="text925">The Concept: From Partial Modeling to Full Richness</text>
  </g>
  <line
     x1="408.90372"
     y1="763.64856"
     x2="408.90372"
     y2="1013.6486"
     stroke="#e2e8f0"
     stroke-width="2"
     stroke-dasharray="8, 8"
     id="line929" />
  <g
     transform="translate(-41.096286,733.64856)"
     id="g965">
    <text
       x="200"
       y="35"
       font-family="'Segoe UI', Roboto, Helvetica, Arial, sans-serif"
       font-weight="700"
       font-size="14px"
       fill="#64748b"
       text-anchor="middle"
       letter-spacing="1.2"
       id="text931">CLASSICAL PARADIGM (E.G., ANCOGEN)</text>
    <rect
       x="50"
       y="70"
       width="130"
       height="160"
       rx="16"
       fill="#f8fafc"
       stroke="#cbd5e1"
       stroke-width="1"
       filter="url(#shadowSmall)"
       id="rect933" />
    <g
       transform="translate(70,105)"
       fill="#334155"
       font-family="'Segoe UI', Roboto, Helvetica, Arial, sans-serif"
       font-size="14px"
       font-weight="600"
       id="g949">
      <path
         d="m 12,2 a 4,4 0 1 0 0,8 4,4 0 0 0 0,-8 z M 2,20 a 10,10 0 0 1 20,0"
         fill="none"
         stroke="#2563eb"
         stroke-width="1.8"
         transform="scale(0.7)"
         id="path935" />
      <text
         x="28"
         y="10"
         id="text937">Identity</text>
      <path
         d="M 4,7 H 20 M 12,7 V 19"
         fill="none"
         stroke="#2563eb"
         stroke-width="1.8"
         transform="matrix(0.7,0,0,0.7,0,40)"
         id="path939" />
      <text
         x="28"
         y="50"
         id="text941">Content</text>
      <path
         d="M 9,18 V 5 L 21,3 v 13"
         fill="none"
         stroke="#2563eb"
         stroke-width="1.8"
         transform="matrix(0.7,0,0,0.7,0,80)"
         id="path943" />
      <circle
         cx="6"
         cy="18"
         r="3"
         fill="none"
         stroke="#2563eb"
         stroke-width="1.8"
         transform="matrix(0.7,0,0,0.7,0,80)"
         id="circle945" />
      <text
         x="28"
         y="90"
         id="text947">Pitch</text>
    </g>
    <path
       d="m 200,150 h 40 m -10,-10 10,10 -10,10"
       fill="none"
       stroke="#94a3b8"
       stroke-width="2.5"
       id="path951" />
    <rect
       x="260"
       y="70"
       width="170"
       height="160"
       rx="16"
       fill="none"
       stroke="#94a3b8"
       stroke-width="2"
       stroke-dasharray="6, 6"
       id="rect953" />
    <g
       transform="translate(345,110)"
       text-anchor="middle"
       id="g963">
      <path
         d="m -60,30 q 20,0 40,0 20,0 40,0 20,0 40,0"
         fill="none"
         stroke="#64748b"
         stroke-width="3"
         stroke-linecap="round"
         id="path955" />
      <path
         d="m -60,30 q 20,0 40,0 20,0 40,0 20,0 40,0"
         fill="none"
         stroke="#64748b"
         stroke-width="8"
         stroke-opacity="0.2"
         id="path957" />
      <text
         y="80"
         font-family="'Segoe UI', Roboto, Helvetica, Arial, sans-serif"
         font-size="14px"
         font-weight="700"
         fill="#475569"
         id="text959">&quot;Flat&quot; Speech</text>
      <text
         y="105"
         font-family="'Segoe UI', Roboto, Helvetica, Arial, sans-serif"
         font-size="12px"
         fill="#64748b"
         id="text961">(Lacks Expressivity)</text>
    </g>
  </g>
  <g
     transform="translate(458.90371,733.64856)"
     id="g1001" />
</svg>
